<svg width="22" height="21" viewBox="0 0 22 21" fill="none" xmlns="http://www.w3.org/2000/svg">
<path fill-rule="evenodd" clip-rule="evenodd" d="M6.16398 3.04045C6.15342 1.79785 5.13754 0.799091 3.89494 0.809653C2.65234 0.820215 1.65358 1.8361 1.66415 3.0787L1.69858 7.1297C1.73707 11.6585 5.41929 15.3096 9.94828 15.3096H13.2128C13.1194 15.9839 13.3319 16.6925 13.8504 17.211C14.7291 18.0897 16.1537 18.0897 17.0324 17.211L19.5924 14.651C20.4711 13.7723 20.4711 12.3477 19.5924 11.469L17.0324 8.90901C16.1537 8.03033 14.7291 8.03033 13.8504 8.90901C13.3321 9.42728 13.1196 10.1355 13.2127 10.8096H9.94828C7.88965 10.8096 6.21591 9.15 6.19842 7.09145L6.16398 3.04045Z" fill="#1355BE"/>
<g filter="url(#filter0_d_1231_11459)">
<path fill-rule="evenodd" clip-rule="evenodd" d="M4.91403 3.05107C4.90933 2.49881 4.45783 2.05491 3.90556 2.05961C3.3533 2.0643 2.90941 2.51581 2.9141 3.06807L2.94853 7.11907C2.9812 10.9617 6.1055 14.0596 9.94828 14.0596H15.5876L14.7343 14.9129C14.3438 15.3034 14.3438 15.9366 14.7343 16.3271C15.1248 16.7176 15.758 16.7176 16.1485 16.3271L18.7085 13.7671C19.099 13.3766 19.099 12.7434 18.7085 12.3529L16.1485 9.79289C15.758 9.40237 15.1248 9.40237 14.7343 9.79289C14.3438 10.1834 14.3438 10.8166 14.7343 11.2071L15.5868 12.0596H9.94828C7.20344 12.0596 4.97179 9.84681 4.94846 7.10207L4.91403 3.05107Z" fill="white"/>
</g>
<defs>
<filter id="filter0_d_1231_11459" x="0.914062" y="2.05957" width="20.0874" height="18.5604" filterUnits="userSpaceOnUse" color-interpolation-filters="sRGB">
<feFlood flood-opacity="0" result="BackgroundImageFix"/>
<feColorMatrix in="SourceAlpha" type="matrix" values="0 0 0 0 0 0 0 0 0 0 0 0 0 0 0 0 0 0 127 0" result="hardAlpha"/>
<feOffset dy="2"/>
<feGaussianBlur stdDeviation="1"/>
<feComposite in2="hardAlpha" operator="out"/>
<feColorMatrix type="matrix" values="0 0 0 0 0 0 0 0 0 0 0 0 0 0 0 0 0 0 0.2 0"/>
<feBlend mode="normal" in2="BackgroundImageFix" result="effect1_dropShadow_1231_11459"/>
<feBlend mode="normal" in="SourceGraphic" in2="effect1_dropShadow_1231_11459" result="shape"/>
</filter>
</defs>
</svg>
