<svg width="155" height="80" viewBox="0 0 155 80" fill="none" xmlns="http://www.w3.org/2000/svg">
<g filter="url(#filter0_dd_1231_10899)">
<path d="M135.321 0C136.908 0 138.299 0.183728 139.545 0.621188C141.288 1.23276 142.728 2.3428 143.578 3.99048L143.596 4.0262L143.645 4.1189C144.065 4.92869 144.365 5.73984 144.519 6.58226L144.55 6.76327L144.577 6.9453C144.629 7.34407 144.662 7.79179 144.679 8.3068L144.688 8.62402L144.693 8.95827L144.694 9.31044L144.693 9.6626L144.688 9.99685L144.679 10.3141C144.662 10.8291 144.629 11.2768 144.577 11.6756C144.448 12.6492 144.125 13.5765 143.645 14.502L143.543 14.694C143.391 14.9784 143.222 15.2468 143.036 15.4992C143.97 16.6833 144.483 18.1174 144.613 19.6759L144.626 19.8434L144.633 19.9745L144.64 20.0538C144.647 20.1415 144.653 20.2319 144.659 20.3253L144.673 20.6143C144.676 20.664 144.677 20.7145 144.679 20.7658L144.688 21.0834C144.69 21.1926 144.692 21.3052 144.693 21.4214L144.694 21.7643V39.5031C144.694 39.6213 144.692 39.7364 144.691 39.8486L144.684 40.1764C144.669 40.7618 144.635 41.2629 144.577 41.7056C144.448 42.6792 144.125 43.6065 143.645 44.532L143.543 44.7251C142.715 46.2722 141.368 47.314 139.744 47.9167L139.6 47.9688L139.459 48.0172C138.228 48.4279 136.849 48.6007 135.27 48.6007C133.764 48.6007 132.431 48.4349 131.231 48.0461L131.17 48.0253C130.251 50.7968 128.627 53.2284 126.318 55.2381C122.719 58.3721 118.511 60 113.895 60C110.497 60 107.237 59.1783 104.185 57.5613C102.644 56.7449 101.408 55.913 100.445 54.9897C98.9879 53.5918 98.0662 51.9158 98.0662 49.8861C98.0662 47.361 99.0314 45.0628 100.805 43.2025L100.944 43.0595L101.161 42.8257L100.999 42.6636L100.771 42.4289C97.7058 39.2339 96.0027 35.4195 95.7586 31.1725C95.2429 31.1164 94.735 31.0161 94.2379 30.8725L94.0256 30.8083L93.9641 30.7878L93.9637 39.5031C93.9632 39.6213 93.9622 39.7364 93.9606 39.8486L93.954 40.1764C93.9386 40.7618 93.9047 41.2629 93.8462 41.7056C93.7177 42.6792 93.3944 43.6065 92.9143 44.532L92.8224 44.7055L92.7836 44.7774L92.7424 44.848C91.8238 46.4209 90.3762 47.4538 88.6471 48.0232C87.4179 48.428 86.0467 48.6007 84.489 48.6007C81.896 48.6007 79.7264 48.0872 77.9897 46.754L77.7927 46.5984L77.7213 46.5367C76.9435 45.8643 76.3506 45.0716 75.9272 44.1898C74.6797 45.3295 73.3007 46.2739 71.7948 47.0117C69.0339 48.3644 66.1218 49.0526 63.1141 49.0526C60.0641 49.0526 57.1087 48.3113 54.309 46.8614C52.553 45.952 50.9727 44.7805 49.5762 43.3628C48.8625 44.065 48.0568 44.6846 47.1675 45.2215L45.9711 45.9419L45.3982 46.2854C45.1153 46.4548 44.8002 46.6191 44.4469 46.7822L44.2056 46.8907C44.1644 46.9088 44.1227 46.9269 44.0805 46.945L43.8214 47.0535C43.6888 47.1078 43.5515 47.1623 43.4094 47.217L43.1186 47.3267L42.8143 47.4375L42.4963 47.5494L42.164 47.6628C42.1074 47.6818 42.0502 47.7009 41.9924 47.7201L41.638 47.8362L41.2683 47.9545L40.883 48.0751C38.6886 48.7552 36.5223 49.1028 34.3941 49.1028C32.3618 49.1028 30.3205 48.8402 28.2786 48.3203C26.1863 47.7876 24.0848 46.9156 21.9702 45.719C19.8193 44.5018 17.8808 43.0111 16.166 41.255C14.3064 39.3507 12.8242 36.9862 11.6988 34.196C10.563 31.3804 10 28.3473 10 25.1289C10 21.9015 10.5574 18.9044 11.6908 16.1698C12.8037 13.4846 14.2718 11.1945 16.1096 9.33409C17.7654 7.65791 19.6481 6.24254 21.7444 5.09554L22.2124 4.84322C26.1659 2.73651 30.236 1.65717 34.3687 1.65717C36.451 1.65717 38.5459 1.9714 40.6412 2.59028C42.5662 3.15884 44.1181 3.76638 45.3537 4.47471L46.7204 5.26292L47.0545 5.46585L47.3479 5.64666L47.6224 5.81879L47.8786 5.98258L48.1169 6.13839C48.1552 6.16371 48.1927 6.18872 48.2295 6.21341L48.4416 6.35789L48.581 6.45426L48.7133 6.55985C50.6903 8.13738 51.8751 10.2757 51.8751 12.7503C51.8751 13.8487 51.6586 14.9123 51.2538 15.9358C54.7344 13.1778 58.7576 11.7509 63.1649 11.7509C67.9837 11.7509 72.3313 13.4492 75.9952 16.725L76.0549 16.5986L76.1466 16.4132L76.1796 16.3491C77.0564 14.6786 78.5262 13.5689 80.3024 12.9615C81.5518 12.5343 82.9482 12.3535 84.5398 12.3535C86.0099 12.3535 87.305 12.5044 88.4695 12.8572C88.8047 12.9588 89.1299 13.0772 89.4433 13.2136L89.6299 13.2976L89.7322 13.3464L89.8602 13.2823C91.2795 12.5824 92.6857 12.1705 94.1122 12.1101L94.2984 12.1043L94.4773 12.1024C95.5113 12.1024 96.4274 12.1597 97.2495 12.2866C98.0518 12.4104 98.8847 12.6102 99.7552 12.8818C101.213 13.3365 102.491 14.141 103.504 15.2566L103.567 15.3264C106.273 13.3812 109.285 12.3535 112.523 12.3535C114.207 12.3535 115.812 12.6465 117.306 13.2434L117.51 13.3275L117.516 13.3239C118.823 12.6136 120.328 12.2972 122.012 12.2574L122.207 12.254L122.384 12.253C123.892 12.253 125.134 12.3561 126.216 12.6241C126.126 12.2945 126.059 11.9622 126.015 11.6254C125.956 11.1827 125.922 10.6816 125.907 10.0881L125.9 9.75499L125.897 9.40234L125.897 9.09752C125.898 8.97931 125.899 8.86421 125.9 8.75205L125.907 8.42423C125.922 7.83885 125.956 7.33779 126.015 6.89508C126.134 5.98732 126.418 5.11097 126.836 4.24511L126.928 4.05972L126.961 3.99562C127.838 2.32509 129.307 1.21547 131.084 0.608057C132.333 0.180814 133.729 0 135.321 0Z" fill="url(#paint0_linear_1231_10899)"/>
</g>
<mask id="mask0_1231_10899" style="mask-type:alpha" maskUnits="userSpaceOnUse" x="10" y="0" width="135" height="60">
<path d="M135.321 0C136.908 0 138.299 0.183728 139.545 0.621188C141.288 1.23276 142.728 2.3428 143.578 3.99048L143.596 4.0262L143.645 4.1189C144.065 4.92869 144.365 5.73984 144.519 6.58226L144.55 6.76327L144.577 6.9453C144.629 7.34407 144.662 7.79179 144.679 8.3068L144.688 8.62402L144.693 8.95827L144.694 9.31044L144.693 9.6626L144.688 9.99685L144.679 10.3141C144.662 10.8291 144.629 11.2768 144.577 11.6756C144.448 12.6492 144.125 13.5765 143.645 14.502L143.543 14.694C143.391 14.9784 143.222 15.2468 143.036 15.4992C143.97 16.6833 144.483 18.1174 144.613 19.6759L144.626 19.8434L144.633 19.9745L144.64 20.0538C144.647 20.1415 144.653 20.2319 144.659 20.3253L144.673 20.6143C144.676 20.664 144.677 20.7145 144.679 20.7658L144.688 21.0834C144.69 21.1926 144.692 21.3052 144.693 21.4214L144.694 21.7643V39.5031C144.694 39.6213 144.692 39.7364 144.691 39.8486L144.684 40.1764C144.669 40.7618 144.635 41.2629 144.577 41.7056C144.448 42.6792 144.125 43.6065 143.645 44.532L143.543 44.7251C142.715 46.2722 141.368 47.314 139.744 47.9167L139.6 47.9688L139.459 48.0172C138.228 48.4279 136.849 48.6007 135.27 48.6007C133.764 48.6007 132.431 48.4349 131.231 48.0461L131.17 48.0253C130.251 50.7968 128.627 53.2284 126.318 55.2381C122.719 58.3721 118.511 60 113.895 60C110.497 60 107.237 59.1783 104.185 57.5613C102.644 56.7449 101.408 55.913 100.445 54.9897C98.9879 53.5918 98.0662 51.9158 98.0662 49.8861C98.0662 47.361 99.0314 45.0628 100.805 43.2025L100.944 43.0595L101.161 42.8257L100.999 42.6636L100.771 42.4289C97.7058 39.2339 96.0027 35.4195 95.7586 31.1725C95.2429 31.1164 94.735 31.0161 94.2379 30.8725L94.0256 30.8083L93.9641 30.7878L93.9637 39.5031C93.9632 39.6213 93.9622 39.7364 93.9606 39.8486L93.954 40.1764C93.9386 40.7618 93.9047 41.2629 93.8462 41.7056C93.7177 42.6792 93.3944 43.6065 92.9143 44.532L92.8224 44.7055L92.7836 44.7774L92.7424 44.848C91.8238 46.4209 90.3762 47.4538 88.6471 48.0232C87.4179 48.428 86.0467 48.6007 84.489 48.6007C81.896 48.6007 79.7264 48.0872 77.9897 46.754L77.7927 46.5984L77.7213 46.5367C76.9435 45.8643 76.3506 45.0716 75.9272 44.1898C74.6797 45.3295 73.3007 46.2739 71.7948 47.0117C69.0339 48.3644 66.1218 49.0526 63.1141 49.0526C60.0641 49.0526 57.1087 48.3113 54.309 46.8614C52.553 45.952 50.9727 44.7805 49.5762 43.3628C48.8625 44.065 48.0568 44.6846 47.1675 45.2215L45.9711 45.9419L45.3982 46.2854C45.1153 46.4548 44.8002 46.6191 44.4469 46.7822L44.2056 46.8907C44.1644 46.9088 44.1227 46.9269 44.0805 46.945L43.8214 47.0535C43.6888 47.1078 43.5515 47.1623 43.4094 47.217L43.1186 47.3267L42.8143 47.4375L42.4963 47.5494L42.164 47.6628C42.1074 47.6818 42.0502 47.7009 41.9924 47.7201L41.638 47.8362L41.2683 47.9545L40.883 48.0751C38.6886 48.7552 36.5223 49.1028 34.3941 49.1028C32.3618 49.1028 30.3205 48.8402 28.2786 48.3203C26.1863 47.7876 24.0848 46.9156 21.9702 45.719C19.8193 44.5018 17.8808 43.0111 16.166 41.255C14.3064 39.3507 12.8242 36.9862 11.6988 34.196C10.563 31.3804 10 28.3473 10 25.1289C10 21.9015 10.5574 18.9044 11.6908 16.1698C12.8037 13.4846 14.2718 11.1945 16.1096 9.33409C17.7654 7.65791 19.6481 6.24254 21.7444 5.09554L22.2124 4.84322C26.1659 2.73651 30.236 1.65717 34.3687 1.65717C36.451 1.65717 38.5459 1.9714 40.6412 2.59028C42.5662 3.15884 44.1181 3.76638 45.3537 4.47471L46.7204 5.26292L47.0545 5.46585L47.3479 5.64666L47.6224 5.81879L47.8786 5.98258L48.1169 6.13839C48.1552 6.16371 48.1927 6.18872 48.2295 6.21341L48.4416 6.35789L48.581 6.45426L48.7133 6.55985C50.6903 8.13738 51.8751 10.2757 51.8751 12.7503C51.8751 13.8487 51.6586 14.9123 51.2538 15.9358C54.7344 13.1778 58.7576 11.7509 63.1649 11.7509C67.9837 11.7509 72.3313 13.4492 75.9952 16.725L76.0549 16.5986L76.1466 16.4132L76.1796 16.3491C77.0564 14.6786 78.5262 13.5689 80.3024 12.9615C81.5518 12.5343 82.9482 12.3535 84.5398 12.3535C86.0099 12.3535 87.305 12.5044 88.4695 12.8572C88.8047 12.9588 89.1299 13.0772 89.4433 13.2136L89.6299 13.2976L89.7322 13.3464L89.8602 13.2823C91.2795 12.5824 92.6857 12.1705 94.1122 12.1101L94.2984 12.1043L94.4773 12.1024C95.5113 12.1024 96.4274 12.1597 97.2495 12.2866C98.0518 12.4104 98.8847 12.6102 99.7552 12.8818C101.213 13.3365 102.491 14.141 103.504 15.2566L103.567 15.3264C106.273 13.3812 109.285 12.3535 112.523 12.3535C114.207 12.3535 115.812 12.6465 117.306 13.2434L117.51 13.3275L117.516 13.3239C118.823 12.6136 120.328 12.2972 122.012 12.2574L122.207 12.254L122.384 12.253C123.892 12.253 125.134 12.3561 126.216 12.6241C126.126 12.2945 126.059 11.9622 126.015 11.6254C125.956 11.1827 125.922 10.6816 125.907 10.0881L125.9 9.75499L125.897 9.40234L125.897 9.09752C125.898 8.97931 125.899 8.86421 125.9 8.75205L125.907 8.42423C125.922 7.83885 125.956 7.33779 126.015 6.89508C126.134 5.98732 126.418 5.11097 126.836 4.24511L126.928 4.05972L126.961 3.99562C127.838 2.32509 129.307 1.21547 131.084 0.608057C132.333 0.180814 133.729 0 135.321 0Z" fill="url(#paint1_linear_1231_10899)"/>
</mask>
<g mask="url(#mask0_1231_10899)">
<g filter="url(#filter1_d_1231_10899)">
<path d="M135.321 0C136.908 0 138.299 0.183728 139.545 0.621188C141.288 1.23276 142.728 2.3428 143.578 3.99048L143.596 4.0262L143.645 4.1189C144.065 4.92869 144.365 5.73984 144.519 6.58226L144.55 6.76327L144.577 6.9453C144.629 7.34407 144.662 7.79179 144.679 8.3068L144.688 8.62402L144.693 8.95827L144.694 9.31044L144.693 9.6626L144.688 9.99685L144.679 10.3141C144.662 10.8291 144.629 11.2768 144.577 11.6756C144.448 12.6492 144.125 13.5765 143.645 14.502L143.543 14.694C143.391 14.9784 143.222 15.2468 143.036 15.4992C143.97 16.6833 144.483 18.1174 144.613 19.6759L144.626 19.8434L144.633 19.9745L144.64 20.0538C144.647 20.1415 144.653 20.2319 144.659 20.3253L144.673 20.6143C144.676 20.664 144.677 20.7145 144.679 20.7658L144.688 21.0834C144.69 21.1926 144.692 21.3052 144.693 21.4214L144.694 21.7643V39.5031C144.694 39.6213 144.692 39.7364 144.691 39.8486L144.684 40.1764C144.669 40.7618 144.635 41.2629 144.577 41.7056C144.448 42.6792 144.125 43.6065 143.645 44.532L143.543 44.7251C142.715 46.2722 141.368 47.314 139.744 47.9167L139.6 47.9688L139.459 48.0172C138.228 48.4279 136.849 48.6007 135.27 48.6007C133.764 48.6007 132.431 48.4349 131.231 48.0461L131.17 48.0253C130.251 50.7968 128.627 53.2284 126.318 55.2381C122.719 58.3721 118.511 60 113.895 60C110.497 60 107.237 59.1783 104.185 57.5613C102.644 56.7449 101.408 55.913 100.445 54.9897C98.9879 53.5918 98.0662 51.9158 98.0662 49.8861C98.0662 47.361 99.0314 45.0628 100.805 43.2025L100.944 43.0595L101.161 42.8257L100.999 42.6636L100.771 42.4289C97.7058 39.2339 96.0027 35.4195 95.7586 31.1725C95.2429 31.1164 94.735 31.0161 94.2379 30.8725L94.0256 30.8083L93.9641 30.7878L93.9637 39.5031C93.9632 39.6213 93.9622 39.7364 93.9606 39.8486L93.954 40.1764C93.9386 40.7618 93.9047 41.2629 93.8462 41.7056C93.7177 42.6792 93.3944 43.6065 92.9143 44.532L92.8224 44.7055L92.7836 44.7774L92.7424 44.848C91.8238 46.4209 90.3762 47.4538 88.6471 48.0232C87.4179 48.428 86.0467 48.6007 84.489 48.6007C81.896 48.6007 79.7264 48.0872 77.9897 46.754L77.7927 46.5984L77.7213 46.5367C76.9435 45.8643 76.3506 45.0716 75.9272 44.1898C74.6797 45.3295 73.3007 46.2739 71.7948 47.0117C69.0339 48.3644 66.1218 49.0526 63.1141 49.0526C60.0641 49.0526 57.1087 48.3113 54.309 46.8614C52.553 45.952 50.9727 44.7805 49.5762 43.3628C48.8625 44.065 48.0568 44.6846 47.1675 45.2215L45.9711 45.9419L45.3982 46.2854C45.1153 46.4548 44.8002 46.6191 44.4469 46.7822L44.2056 46.8907C44.1644 46.9088 44.1227 46.9269 44.0805 46.945L43.8214 47.0535C43.6888 47.1078 43.5515 47.1623 43.4094 47.217L43.1186 47.3267L42.8143 47.4375L42.4963 47.5494L42.164 47.6628C42.1074 47.6818 42.0502 47.7009 41.9924 47.7201L41.638 47.8362L41.2683 47.9545L40.883 48.0751C38.6886 48.7552 36.5223 49.1028 34.3941 49.1028C32.3618 49.1028 30.3205 48.8402 28.2786 48.3203C26.1863 47.7876 24.0848 46.9156 21.9702 45.719C19.8193 44.5018 17.8808 43.0111 16.166 41.255C14.3064 39.3507 12.8242 36.9862 11.6988 34.196C10.563 31.3804 10 28.3473 10 25.1289C10 21.9015 10.5574 18.9044 11.6908 16.1698C12.8037 13.4846 14.2718 11.1945 16.1096 9.33409C17.7654 7.65791 19.6481 6.24254 21.7444 5.09554L22.2124 4.84322C26.1659 2.73651 30.236 1.65717 34.3687 1.65717C36.451 1.65717 38.5459 1.9714 40.6412 2.59028C42.5662 3.15884 44.1181 3.76638 45.3537 4.47471L46.7204 5.26292L47.0545 5.46585L47.3479 5.64666L47.6224 5.81879L47.8786 5.98258L48.1169 6.13839C48.1552 6.16371 48.1927 6.18872 48.2295 6.21341L48.4416 6.35789L48.581 6.45426L48.7133 6.55985C50.6903 8.13738 51.8751 10.2757 51.8751 12.7503C51.8751 13.8487 51.6586 14.9123 51.2538 15.9358C54.7344 13.1778 58.7576 11.7509 63.1649 11.7509C67.9837 11.7509 72.3313 13.4492 75.9952 16.725L76.0549 16.5986L76.1466 16.4132L76.1796 16.3491C77.0564 14.6786 78.5262 13.5689 80.3024 12.9615C81.5518 12.5343 82.9482 12.3535 84.5398 12.3535C86.0099 12.3535 87.305 12.5044 88.4695 12.8572C88.8047 12.9588 89.1299 13.0772 89.4433 13.2136L89.6299 13.2976L89.7322 13.3464L89.8602 13.2823C91.2795 12.5824 92.6857 12.1705 94.1122 12.1101L94.2984 12.1043L94.4773 12.1024C95.5113 12.1024 96.4274 12.1597 97.2495 12.2866C98.0518 12.4104 98.8847 12.6102 99.7552 12.8818C101.213 13.3365 102.491 14.141 103.504 15.2566L103.567 15.3264C106.273 13.3812 109.285 12.3535 112.523 12.3535C114.207 12.3535 115.812 12.6465 117.306 13.2434L117.51 13.3275L117.516 13.3239C118.823 12.6136 120.328 12.2972 122.012 12.2574L122.207 12.254L122.384 12.253C123.892 12.253 125.134 12.3561 126.216 12.6241C126.126 12.2945 126.059 11.9622 126.015 11.6254C125.956 11.1827 125.922 10.6816 125.907 10.0881L125.9 9.75499L125.897 9.40234L125.897 9.09752C125.898 8.97931 125.899 8.86421 125.9 8.75205L125.907 8.42423C125.922 7.83885 125.956 7.33779 126.015 6.89508C126.134 5.98732 126.418 5.11097 126.836 4.24511L126.928 4.05972L126.961 3.99562C127.838 2.32509 129.307 1.21547 131.084 0.608057C132.333 0.180814 133.729 0 135.321 0Z" fill="url(#paint2_linear_1231_10899)"/>
</g>
<g filter="url(#filter2_d_1231_10899)">
<path d="M122.382 17.1439C123.704 17.1439 124.67 17.2443 125.28 17.4452C125.89 17.6461 126.322 17.9892 126.576 18.4747C126.83 18.9601 126.982 19.387 127.033 19.7552C127.084 20.1235 127.109 20.6926 127.109 21.4626V42.2526L127.108 42.4477C127.063 46.2076 125.708 49.2477 123.043 51.5679C120.332 53.9281 117.282 55.1082 113.893 55.1082C111.318 55.1082 108.861 54.4889 106.523 53.2502C104.185 52.0115 103.015 50.89 103.015 49.8856C103.015 48.58 103.524 47.425 104.54 46.4206C105.184 45.7176 105.684 45.2322 106.04 44.9643C106.396 44.6965 106.811 44.5626 107.285 44.5626C107.76 44.5626 108.251 44.7635 108.759 45.1652C110.386 46.4039 112.148 47.0232 114.046 47.0232C115.334 47.0232 116.384 46.5211 117.197 45.5167C118.011 44.5124 118.417 43.3072 118.417 41.9011V40.3946L118.339 40.494C117.047 42.1016 115.023 42.9054 112.267 42.9054C109.454 42.9054 106.819 41.6249 104.362 39.0638C101.906 36.5027 100.677 33.5148 100.677 30.1C100.677 26.6852 101.914 23.6889 104.388 21.1111C106.862 18.5333 109.573 17.2443 112.521 17.2443C113.673 17.2443 114.724 17.4536 115.672 17.8721C116.621 18.2905 117.274 18.6755 117.629 19.0271C117.985 19.3786 118.265 19.705 118.468 20.0063C118.57 19.0689 118.917 18.3575 119.51 17.8721C120.103 17.3866 121.061 17.1439 122.382 17.1439ZM34.3668 6.54804C35.9595 6.54804 37.5776 6.79076 39.2212 7.27619C40.8647 7.76163 42.1101 8.25543 42.9573 8.75761L44.1772 9.46065L44.3058 9.53854C44.8543 9.87161 45.2858 10.147 45.6005 10.3646C46.4816 11.0676 46.9221 11.8627 46.9221 12.7499C46.9221 13.6371 46.5663 14.5661 45.8546 15.537C44.533 17.3448 43.347 18.2487 42.2965 18.2487C41.6865 18.2487 40.8223 17.8804 39.7041 17.1439C38.2808 16.0056 36.3831 15.4365 34.011 15.4365C31.8083 15.4365 29.6395 16.1898 27.5045 17.6963C26.4879 18.4328 25.6407 19.4706 24.963 20.8098C24.2852 22.1489 23.9464 23.6638 23.9464 25.3545C23.9464 27.0451 24.2852 28.56 24.963 29.8991C25.6407 31.2383 26.5049 32.2928 27.5554 33.0628C29.6225 34.5359 31.7744 35.2724 34.011 35.2724C35.0615 35.2724 36.0527 35.1385 36.9846 34.8706C37.9165 34.6028 38.5858 34.335 38.9924 34.0672L39.9074 33.4143L40.0295 33.3439C41.1172 32.7213 41.8898 32.41 42.3473 32.41C43.3978 32.41 44.533 33.3474 45.753 35.2222C46.4985 36.3939 46.8713 37.3313 46.8713 38.0343C46.8713 38.7374 46.6425 39.3233 46.1851 39.7919C45.7276 40.2606 45.1938 40.6791 44.5839 41.0474C43.9739 41.4156 43.3893 41.7672 42.8302 42.1019C42.271 42.4367 41.1273 42.8719 39.3991 43.4076C37.6708 43.9432 36.0018 44.2111 34.3922 44.2111C32.7825 44.2111 31.1559 44.0018 29.5124 43.5834C27.8688 43.1649 26.1745 42.4618 24.4293 41.4742C22.684 40.4866 21.1167 39.2814 19.7274 37.8586C18.338 36.4358 17.1943 34.6112 16.2962 32.3849C15.3982 30.1586 14.9492 27.7398 14.9492 25.1285C14.9492 22.5172 15.3898 20.1486 16.2708 18.0227C17.1519 15.8968 18.2787 14.1392 19.6511 12.7499C21.0236 11.3605 22.5909 10.1972 24.353 9.25978C27.674 7.45196 31.0119 6.54804 34.3668 6.54804ZM63.163 16.6417C66.8229 16.6417 70.0591 17.939 72.8718 20.5336C75.6845 23.1281 77.0908 26.4341 77.0908 30.4515C77.0908 33.2302 76.3622 35.6992 74.9051 37.8586C73.4479 40.0179 71.6773 41.6081 69.5932 42.6292C67.5091 43.6503 65.3488 44.1609 63.1122 44.1609C60.8756 44.1609 58.7068 43.6168 56.6058 42.5288C54.5048 41.4408 52.7341 39.8338 51.2939 37.7079C49.8537 35.5821 49.1336 33.18 49.1336 30.5017C49.1336 26.4843 50.5569 23.17 53.4034 20.5587C56.25 17.9474 59.5032 16.6417 63.163 16.6417ZM94.4754 16.9933C95.2718 16.9933 95.9411 17.0351 96.4833 17.1188C97.0255 17.2025 97.6185 17.3448 98.2624 17.5456C98.9062 17.7465 99.44 18.0897 99.8636 18.5751C100.287 19.0605 100.499 19.8389 100.499 20.9102C100.499 21.9815 100.177 23.1533 99.5332 24.4254C98.8893 25.6976 97.9574 26.3337 96.7374 26.3337C96.1275 26.3337 95.5429 26.1998 94.9838 25.932C94.4246 25.6641 93.6876 25.5302 92.7726 25.5302C91.8576 25.5302 91.002 25.8483 90.2056 26.4843C89.4093 27.1204 89.0111 27.8904 89.0111 28.7943V39.34L89.0108 39.4821C89.0078 40.1814 88.9825 40.7116 88.9348 41.0725C88.884 41.4575 88.723 41.9011 88.4519 42.4032C87.9436 43.2737 86.622 43.7089 84.4871 43.7089C82.8605 43.7089 81.6914 43.4243 80.9797 42.8552C80.4375 42.3865 80.1325 41.6667 80.0648 40.6959L80.0651 21.4711C80.068 20.7718 80.0934 20.2417 80.141 19.8808C80.1918 19.4958 80.3359 19.0689 80.5731 18.6002C81.0475 17.6963 82.3691 17.2443 84.5379 17.2443C86.5712 17.2443 87.842 17.6293 88.3503 18.3993C88.723 18.935 88.9094 19.4874 88.9094 20.0565C89.0789 19.8222 89.3245 19.5376 89.6465 19.2028C89.9684 18.868 90.6546 18.4161 91.7051 17.847C92.7557 17.2778 93.6791 16.9933 94.4754 16.9933ZM135.319 17.2946C136.946 17.2946 138.098 17.5791 138.776 18.1483C139.352 18.617 139.657 19.3367 139.691 20.3076C139.724 20.6424 139.741 21.1278 139.741 21.7639V39.34L139.741 39.4821C139.738 40.1814 139.713 40.7116 139.665 41.0725C139.614 41.4575 139.453 41.9011 139.182 42.4032C138.742 43.2737 137.437 43.7089 135.268 43.7089C133.133 43.7089 131.829 43.2569 131.354 42.353C131.117 41.8509 130.973 41.4156 130.922 41.0474C130.874 40.7008 130.849 40.1614 130.846 39.4293L130.846 21.5214C130.849 20.822 130.874 20.2919 130.922 19.931C130.973 19.546 131.117 19.1024 131.354 18.6002C131.829 17.7298 133.15 17.2946 135.319 17.2946ZM63.1122 25.48C61.8923 25.48 60.757 25.8985 59.7065 26.7354C58.656 27.5724 58.1307 28.8027 58.1307 30.4264C58.1307 32.0501 58.6729 33.2804 59.7573 34.1174C60.8417 34.9209 61.9431 35.3226 63.0614 35.3226C64.1797 35.3226 65.2979 34.9041 66.4162 34.0672C67.5345 33.2302 68.0937 31.9915 68.0937 30.3511C68.0937 28.7106 67.5684 27.4887 66.5179 26.6852C65.4674 25.8817 64.3322 25.48 63.1122 25.48ZM113.792 25.7813C112.47 25.7813 111.403 26.2333 110.589 27.1372C109.776 28.0411 109.369 29.0454 109.369 30.1502C109.369 31.2215 109.801 32.1924 110.666 33.0628C111.53 33.9333 112.58 34.3685 113.817 34.3685C115.054 34.3685 116.079 33.9249 116.892 33.0377C117.706 32.1505 118.112 31.1797 118.112 30.1251C118.112 29.0705 117.723 28.0829 116.943 27.1623C116.164 26.2416 115.113 25.7813 113.792 25.7813ZM33.7634 20.543C36.4978 20.543 38.7145 22.733 38.7145 25.4343C38.7145 28.1357 36.4978 30.3256 33.7634 30.3256C31.029 30.3256 28.8123 28.1357 28.8123 25.4343C28.8123 22.733 31.029 20.543 33.7634 20.543ZM135.319 4.89087C137.454 4.89087 138.742 5.34283 139.182 6.24674C139.453 6.74891 139.614 7.1925 139.665 7.5775C139.716 7.9625 139.741 8.54 139.741 9.31C139.741 10.08 139.716 10.6575 139.665 11.0425C139.614 11.4275 139.453 11.8711 139.182 12.3733C138.945 12.842 138.504 13.1767 137.861 13.3776C137.217 13.5785 136.361 13.6789 135.294 13.6789C134.226 13.6789 133.371 13.5785 132.727 13.3776C132.083 13.1767 131.634 12.8252 131.38 12.323C131.125 11.8209 130.973 11.3773 130.922 10.9923C130.874 10.6313 130.849 10.1012 130.846 9.4019V9.11766C130.849 8.41835 130.874 7.88822 130.922 7.52728C130.973 7.14228 131.117 6.71543 131.354 6.24674C131.829 5.34283 133.15 4.89087 135.319 4.89087Z" fill="url(#paint3_linear_1231_10899)"/>
</g>
</g>
<defs>
<filter id="filter0_dd_1231_10899" x="0" y="0" width="154.694" height="80" filterUnits="userSpaceOnUse" color-interpolation-filters="sRGB">
<feFlood flood-opacity="0" result="BackgroundImageFix"/>
<feColorMatrix in="SourceAlpha" type="matrix" values="0 0 0 0 0 0 0 0 0 0 0 0 0 0 0 0 0 0 127 0" result="hardAlpha"/>
<feOffset dy="4"/>
<feGaussianBlur stdDeviation="1"/>
<feComposite in2="hardAlpha" operator="out"/>
<feColorMatrix type="matrix" values="0 0 0 0 0 0 0 0 0 0 0 0 0 0 0 0 0 0 0.1 0"/>
<feBlend mode="normal" in2="BackgroundImageFix" result="effect1_dropShadow_1231_10899"/>
<feColorMatrix in="SourceAlpha" type="matrix" values="0 0 0 0 0 0 0 0 0 0 0 0 0 0 0 0 0 0 127 0" result="hardAlpha"/>
<feOffset dy="10"/>
<feGaussianBlur stdDeviation="5"/>
<feComposite in2="hardAlpha" operator="out"/>
<feColorMatrix type="matrix" values="0 0 0 0 0 0 0 0 0 0 0 0 0 0 0 0 0 0 0.1 0"/>
<feBlend mode="normal" in2="effect1_dropShadow_1231_10899" result="effect2_dropShadow_1231_10899"/>
<feBlend mode="normal" in="SourceGraphic" in2="effect2_dropShadow_1231_10899" result="shape"/>
</filter>
<filter id="filter1_d_1231_10899" x="6" y="0" width="142.694" height="68" filterUnits="userSpaceOnUse" color-interpolation-filters="sRGB">
<feFlood flood-opacity="0" result="BackgroundImageFix"/>
<feColorMatrix in="SourceAlpha" type="matrix" values="0 0 0 0 0 0 0 0 0 0 0 0 0 0 0 0 0 0 127 0" result="hardAlpha"/>
<feOffset dy="4"/>
<feGaussianBlur stdDeviation="2"/>
<feComposite in2="hardAlpha" operator="out"/>
<feColorMatrix type="matrix" values="0 0 0 0 0 0 0 0 0 0 0 0 0 0 0 0 0 0 0.35 0"/>
<feBlend mode="normal" in2="BackgroundImageFix" result="effect1_dropShadow_1231_10899"/>
<feBlend mode="normal" in="SourceGraphic" in2="effect1_dropShadow_1231_10899" result="shape"/>
</filter>
<filter id="filter2_d_1231_10899" x="9.6551" y="4.89087" width="135.38" height="60.8056" filterUnits="userSpaceOnUse" color-interpolation-filters="sRGB">
<feFlood flood-opacity="0" result="BackgroundImageFix"/>
<feColorMatrix in="SourceAlpha" type="matrix" values="0 0 0 0 0 0 0 0 0 0 0 0 0 0 0 0 0 0 127 0" result="hardAlpha"/>
<feOffset dy="5.29412"/>
<feGaussianBlur stdDeviation="2.64706"/>
<feComposite in2="hardAlpha" operator="out"/>
<feColorMatrix type="matrix" values="0 0 0 0 0.904167 0 0 0 0 0.549733 0 0 0 0 0.350365 0 0 0 1 0"/>
<feBlend mode="normal" in2="BackgroundImageFix" result="effect1_dropShadow_1231_10899"/>
<feBlend mode="normal" in="SourceGraphic" in2="effect1_dropShadow_1231_10899" result="shape"/>
</filter>
<linearGradient id="paint0_linear_1231_10899" x1="77.3472" y1="0" x2="77.3472" y2="60" gradientUnits="userSpaceOnUse">
<stop stop-color="#FFBB55"/>
<stop offset="0.999481" stop-color="#FB9A41"/>
</linearGradient>
<linearGradient id="paint1_linear_1231_10899" x1="77.3472" y1="0" x2="77.3472" y2="60" gradientUnits="userSpaceOnUse">
<stop stop-color="#FFBB55"/>
<stop offset="0.999481" stop-color="#FB9A41"/>
</linearGradient>
<linearGradient id="paint2_linear_1231_10899" x1="77.3472" y1="0" x2="77.3472" y2="60" gradientUnits="userSpaceOnUse">
<stop stop-color="#FFBB55"/>
<stop offset="0.999481" stop-color="#FB9A41"/>
</linearGradient>
<linearGradient id="paint3_linear_1231_10899" x1="77.3453" y1="4.89087" x2="77.3453" y2="55.1082" gradientUnits="userSpaceOnUse">
<stop stop-color="white"/>
<stop offset="0.999481" stop-color="#FFF6EC"/>
</linearGradient>
</defs>
</svg>
