<?xml version="1.0" encoding="utf-8"?><svg viewBox="0 0 22 21" xmlns="http://www.w3.org/2000/svg" xmlns:xlink="http://www.w3.org/1999/xlink"><style>:root>svg{display:none}:root>svg:target{display:block}</style><svg viewBox="0 0 22 21" id="Arrow" xmlns="http://www.w3.org/2000/svg"><path fill-rule="evenodd" clip-rule="evenodd" d="M6.164 3.04a2.25 2.25 0 10-4.5.039l.035 4.05a8.25 8.25 0 008.25 8.18h3.264a2.25 2.25 0 003.82 1.901l2.56-2.559a2.25 2.25 0 000-3.182l-2.56-2.56a2.25 2.25 0 00-3.82 1.9H9.948a3.75 3.75 0 01-3.75-3.718l-.034-4.05z"/><g filter="url(#aa)"><path fill-rule="evenodd" clip-rule="evenodd" d="M4.914 3.051a1 1 0 00-2 .017L2.95 7.12a7 7 0 007 6.94h5.639l-.854.854a1 1 0 001.414 1.414l2.56-2.56a1 1 0 000-1.414l-2.56-2.56a1 1 0 10-1.414 1.414l.853.853h-5.64a5 5 0 01-5-4.958l-.034-4.05z"/></g><defs><filter id="aa" x=".914" y="2.06" width="20.087" height="18.56" filterUnits="userSpaceOnUse" color-interpolation-filters="sRGB"><feFlood flood-opacity="0" result="BackgroundImageFix"/><feColorMatrix in="SourceAlpha" values="0 0 0 0 0 0 0 0 0 0 0 0 0 0 0 0 0 0 127 0" result="hardAlpha"/><feOffset dy="2"/><feGaussianBlur stdDeviation="1"/><feComposite in2="hardAlpha" operator="out"/><feColorMatrix values="0 0 0 0 0 0 0 0 0 0 0 0 0 0 0 0 0 0 0.2 0"/><feBlend in2="BackgroundImageFix" result="effect1_dropShadow_1245_11703"/><feBlend in="SourceGraphic" in2="effect1_dropShadow_1245_11703" result="shape"/></filter></defs></svg></svg>